<svg id="visual" viewBox="0 0 900 600" width="900" height="600" xmlns="http://www.w3.org/2000/svg" xmlns:xlink="http://www.w3.org/1999/xlink" version="1.1"><path d="M0 475L21.5 480.8C43 486.7 86 498.3 128.8 484.8C171.7 471.3 214.3 432.7 257.2 413.3C300 394 343 394 385.8 411.7C428.7 429.3 471.3 464.7 514.2 461C557 457.3 600 414.7 642.8 414.3C685.7 414 728.3 456 771.2 474.8C814 493.7 857 489.3 878.5 487.2L900 485L900 0L878.5 0C857 0 814 0 771.2 0C728.3 0 685.7 0 642.8 0C600 0 557 0 514.2 0C471.3 0 428.7 0 385.8 0C343 0 300 0 257.2 0C214.3 0 171.7 0 128.8 0C86 0 43 0 21.5 0L0 0Z" fill="#68b1ff"></path><path d="M0 307L21.5 321.3C43 335.7 86 364.3 128.8 374.5C171.7 384.7 214.3 376.3 257.2 367.5C300 358.7 343 349.3 385.8 347.5C428.7 345.7 471.3 351.3 514.2 356.7C557 362 600 367 642.8 357.3C685.7 347.7 728.3 323.3 771.2 309.5C814 295.7 857 292.3 878.5 290.7L900 289L900 0L878.5 0C857 0 814 0 771.2 0C728.3 0 685.7 0 642.8 0C600 0 557 0 514.2 0C471.3 0 428.7 0 385.8 0C343 0 300 0 257.2 0C214.3 0 171.7 0 128.8 0C86 0 43 0 21.5 0L0 0Z" fill="#4f93e6"></path><path d="M0 235L21.5 245.2C43 255.3 86 275.7 128.8 276C171.7 276.3 214.3 256.7 257.2 264.2C300 271.7 343 306.3 385.8 311.8C428.7 317.3 471.3 293.7 514.2 274.3C557 255 600 240 642.8 241.2C685.7 242.3 728.3 259.7 771.2 281.3C814 303 857 329 878.5 342L900 355L900 0L878.5 0C857 0 814 0 771.2 0C728.3 0 685.7 0 642.8 0C600 0 557 0 514.2 0C471.3 0 428.7 0 385.8 0C343 0 300 0 257.2 0C214.3 0 171.7 0 128.8 0C86 0 43 0 21.5 0L0 0Z" fill="#3975cd"></path><path d="M0 266L21.5 252C43 238 86 210 128.8 196C171.7 182 214.3 182 257.2 185.7C300 189.3 343 196.7 385.8 194.8C428.7 193 471.3 182 514.2 190.8C557 199.7 600 228.3 642.8 242.8C685.7 257.3 728.3 257.7 771.2 246.2C814 234.7 857 211.3 878.5 199.7L900 188L900 0L878.5 0C857 0 814 0 771.2 0C728.3 0 685.7 0 642.8 0C600 0 557 0 514.2 0C471.3 0 428.7 0 385.8 0C343 0 300 0 257.2 0C214.3 0 171.7 0 128.8 0C86 0 43 0 21.5 0L0 0Z" fill="#2557b3"></path><path d="M0 120L21.5 126.3C43 132.7 86 145.3 128.8 147.7C171.7 150 214.3 142 257.2 149C300 156 343 178 385.8 183.7C428.7 189.3 471.3 178.7 514.2 169.2C557 159.7 600 151.3 642.8 143.7C685.7 136 728.3 129 771.2 137.2C814 145.3 857 168.7 878.5 180.3L900 192L900 0L878.5 0C857 0 814 0 771.2 0C728.3 0 685.7 0 642.8 0C600 0 557 0 514.2 0C471.3 0 428.7 0 385.8 0C343 0 300 0 257.2 0C214.3 0 171.7 0 128.8 0C86 0 43 0 21.5 0L0 0Z" fill="#133b98"></path><path d="M0 88L21.5 93.8C43 99.7 86 111.3 128.8 109C171.7 106.7 214.3 90.3 257.2 91C300 91.7 343 109.3 385.8 116.2C428.7 123 471.3 119 514.2 112.8C557 106.7 600 98.3 642.8 93.7C685.7 89 728.3 88 771.2 88.3C814 88.7 857 90.3 878.5 91.2L900 92L900 0L878.5 0C857 0 814 0 771.2 0C728.3 0 685.7 0 642.8 0C600 0 557 0 514.2 0C471.3 0 428.7 0 385.8 0C343 0 300 0 257.2 0C214.3 0 171.7 0 128.8 0C86 0 43 0 21.5 0L0 0Z" fill="#001e7c"></path></svg>