<svg id="visual" viewBox="0 0 675 900" width="675" height="900" xmlns="http://www.w3.org/2000/svg" xmlns:xlink="http://www.w3.org/1999/xlink" version="1.1"><path d="M0 528L22.5 551.8C45 575.7 90 623.3 135 643.5C180 663.7 225 656.3 270 629C315 601.7 360 554.3 405 558.2C450 562 495 617 540 619.3C585 621.7 630 571.3 652.5 546.2L675 521L675 0L652.5 0C630 0 585 0 540 0C495 0 450 0 405 0C360 0 315 0 270 0C225 0 180 0 135 0C90 0 45 0 22.5 0L0 0Z" fill="#68b1ff"></path><path d="M0 450L22.5 450.5C45 451 90 452 135 465.8C180 479.7 225 506.3 270 516.5C315 526.7 360 520.3 405 525.3C450 530.3 495 546.7 540 539C585 531.3 630 499.7 652.5 483.8L675 468L675 0L652.5 0C630 0 585 0 540 0C495 0 450 0 405 0C360 0 315 0 270 0C225 0 180 0 135 0C90 0 45 0 22.5 0L0 0Z" fill="#4f93e6"></path><path d="M0 335L22.5 357C45 379 90 423 135 422.3C180 421.7 225 376.3 270 375.8C315 375.3 360 419.7 405 441.2C450 462.7 495 461.3 540 448.7C585 436 630 412 652.5 400L675 388L675 0L652.5 0C630 0 585 0 540 0C495 0 450 0 405 0C360 0 315 0 270 0C225 0 180 0 135 0C90 0 45 0 22.5 0L0 0Z" fill="#3975cd"></path><path d="M0 322L22.5 323.5C45 325 90 328 135 328.5C180 329 225 327 270 313.7C315 300.3 360 275.7 405 270.7C450 265.7 495 280.3 540 294C585 307.7 630 320.3 652.5 326.7L675 333L675 0L652.5 0C630 0 585 0 540 0C495 0 450 0 405 0C360 0 315 0 270 0C225 0 180 0 135 0C90 0 45 0 22.5 0L0 0Z" fill="#2557b3"></path><path d="M0 226L22.5 223.2C45 220.3 90 214.7 135 207C180 199.3 225 189.7 270 186.8C315 184 360 188 405 192.5C450 197 495 202 540 199.2C585 196.3 630 185.7 652.5 180.3L675 175L675 0L652.5 0C630 0 585 0 540 0C495 0 450 0 405 0C360 0 315 0 270 0C225 0 180 0 135 0C90 0 45 0 22.5 0L0 0Z" fill="#133b98"></path><path d="M0 137L22.5 140.8C45 144.7 90 152.3 135 148.8C180 145.3 225 130.7 270 120.7C315 110.7 360 105.3 405 106.7C450 108 495 116 540 125.7C585 135.3 630 146.7 652.5 152.3L675 158L675 0L652.5 0C630 0 585 0 540 0C495 0 450 0 405 0C360 0 315 0 270 0C225 0 180 0 135 0C90 0 45 0 22.5 0L0 0Z" fill="#001e7c"></path></svg>