<svg id="visual" viewBox="0 0 675 900" width="675" height="900" xmlns="http://www.w3.org/2000/svg" preserveAspectRatio="none" xmlns:xlink="http://www.w3.org/1999/xlink" version="1.1"><rect x="0" y="0" width="675" height="900" fill="#19213d"></rect><path d="M0 764L37.5 770.8C75 777.7 150 791.3 225 765.8C300 740.3 375 675.7 450 662.7C525 649.7 600 688.3 637.5 707.7L675 727L675 0L637.5 0C600 0 525 0 450 0C375 0 300 0 225 0C150 0 75 0 37.5 0L0 0Z" fill="#da1061"></path><path d="M0 382L37.5 433.5C75 485 150 588 225 629.2C300 670.3 375 649.7 450 594.2C525 538.7 600 448.3 637.5 403.2L675 358L675 0L637.5 0C600 0 525 0 450 0C375 0 300 0 225 0C150 0 75 0 37.5 0L0 0Z" fill="#ba1457"></path><path d="M0 240L37.5 270.7C75 301.3 150 362.7 225 410.2C300 457.7 375 491.3 450 489C525 486.7 600 448.3 637.5 429.2L675 410L675 0L637.5 0C600 0 525 0 450 0C375 0 300 0 225 0C150 0 75 0 37.5 0L0 0Z" fill="#9b164c"></path><path d="M0 250L37.5 251.7C75 253.3 150 256.7 225 244.2C300 231.7 375 203.3 450 217.8C525 232.3 600 289.7 637.5 318.3L675 347L675 0L637.5 0C600 0 525 0 450 0C375 0 300 0 225 0C150 0 75 0 37.5 0L0 0Z" fill="#7d1640"></path><path d="M0 215L37.5 220.3C75 225.7 150 236.3 225 208.5C300 180.7 375 114.3 450 113.8C525 113.3 600 178.7 637.5 211.3L675 244L675 0L637.5 0C600 0 525 0 450 0C375 0 300 0 225 0C150 0 75 0 37.5 0L0 0Z" fill="#601434"></path></svg>