<svg id="visual" viewBox="0 0 900 600" width="900" height="600" xmlns="http://www.w3.org/2000/svg" xmlns:xlink="http://www.w3.org/1999/xlink" version="1.1"><rect x="0" y="0" width="900" height="600" fill="#19213d"></rect><path d="M0 502L50 474.5C100 447 200 392 300 401.8C400 411.7 500 486.3 600 493.3C700 500.3 800 439.7 850 409.3L900 379L900 0L850 0C800 0 700 0 600 0C500 0 400 0 300 0C200 0 100 0 50 0L0 0Z" fill="#da1061"></path><path d="M0 215L50 240.5C100 266 200 317 300 338.3C400 359.7 500 351.3 600 336.7C700 322 800 301 850 290.5L900 280L900 0L850 0C800 0 700 0 600 0C500 0 400 0 300 0C200 0 100 0 50 0L0 0Z" fill="#ba1457"></path><path d="M0 316L50 299.8C100 283.7 200 251.3 300 235.8C400 220.3 500 221.7 600 238.3C700 255 800 287 850 303L900 319L900 0L850 0C800 0 700 0 600 0C500 0 400 0 300 0C200 0 100 0 50 0L0 0Z" fill="#9b164c"></path><path d="M0 151L50 164.7C100 178.3 200 205.7 300 208.7C400 211.7 500 190.3 600 180.8C700 171.3 800 173.7 850 174.8L900 176L900 0L850 0C800 0 700 0 600 0C500 0 400 0 300 0C200 0 100 0 50 0L0 0Z" fill="#7d1640"></path><path d="M0 82L50 87C100 92 200 102 300 113C400 124 500 136 600 131.3C700 126.7 800 105.3 850 94.7L900 84L900 0L850 0C800 0 700 0 600 0C500 0 400 0 300 0C200 0 100 0 50 0L0 0Z" fill="#601434"></path></svg>